<svg width="27" height="27" viewBox="0 0 27 27" fill="none" xmlns="http://www.w3.org/2000/svg">
<path d="M1 4.47222C1 16.3617 10.6383 26 22.5278 26C23.0642 26 23.596 25.9804 24.1226 25.9418C24.7269 25.8975 25.029 25.8754 25.3042 25.7171C25.5319 25.586 25.7479 25.3535 25.8621 25.1167C26 24.8308 26 24.4974 26 23.8306V19.9176C26 19.3568 26 19.0764 25.9076 18.8361C25.8262 18.6237 25.6937 18.4347 25.5221 18.2856C25.3278 18.1167 25.0642 18.0208 24.5372 17.8292L20.0833 16.2096C19.4701 15.9867 19.1635 15.8751 18.8726 15.894C18.6161 15.9107 18.3693 15.9983 18.1596 16.1469C17.9218 16.3154 17.754 16.5951 17.4183 17.1547L16.2778 19.0556C12.5974 17.3887 9.61375 14.4012 7.94444 10.7222L9.84532 9.58169C10.4048 9.24601 10.6845 9.07817 10.8531 8.84036C11.0017 8.63067 11.0893 8.38385 11.106 8.12736C11.1249 7.83649 11.0133 7.5299 10.7904 6.91674L9.17082 2.46279C8.97917 1.93578 8.88335 1.67226 8.71447 1.47792C8.56529 1.30624 8.37624 1.17382 8.16392 1.09229C7.92356 1 7.64317 1 7.08239 1H3.16946C2.50261 1 2.16918 1 1.88331 1.13785C1.64653 1.25203 1.41408 1.46807 1.28292 1.69587C1.12456 1.97093 1.10243 2.27308 1.05818 2.8774C1.01962 3.40397 1 3.93581 1 4.47222Z" stroke="#BBB1A1" stroke-linecap="round" stroke-linejoin="round"/>
</svg>
