<svg width="19" height="25" viewBox="0 0 19 25" fill="none" xmlns="http://www.w3.org/2000/svg">
<path d="M9.5 10.9375C6.48448 10.9375 4.03125 8.48389 4.03125 5.46875C4.03125 2.45361 6.48448 0 9.5 0C12.5155 0 14.9688 2.45361 14.9688 5.46875C14.9688 8.48389 12.5155 10.9375 9.5 10.9375ZM9.5 1.5625C7.34622 1.5625 5.59375 3.31497 5.59375 5.46875C5.59375 7.62253 7.34622 9.375 9.5 9.375C11.6538 9.375 13.4062 7.62253 13.4062 5.46875C13.4062 3.31497 11.6538 1.5625 9.5 1.5625Z" fill="#BBB1A1"/>
<path d="M18.0938 25C17.6623 25 17.3125 24.6505 17.3125 24.2187V19.4412C17.3125 16.4505 14.8795 14.0175 11.8888 14.0175H7.11124C4.12051 14.0175 1.6875 16.4505 1.6875 19.4412V24.2187C1.6875 24.6505 1.33769 25 0.90625 25C0.474808 25 0.125 24.6505 0.125 24.2187V19.4412C0.125 15.5891 3.25916 12.455 7.11124 12.455H11.8888C15.7408 12.455 18.875 15.5891 18.875 19.4412V24.2187C18.875 24.6505 18.5252 25 18.0938 25Z" fill="#BBB1A1"/>
</svg>
